<svg width="800" height="800" viewBox="0 0 800 800" fill="none" xmlns="http://www.w3.org/2000/svg">
  <!-- Background -->
  <rect width="800" height="800" fill="#F8F9FA"/>
  
  <!-- Definitions for depth and gradient effects -->
  <defs>
    <linearGradient id="slashGradient" x1="0%" y1="0%" x2="100%" y2="100%">
      <stop offset="0%" style="stop-color:#1E293B;stop-opacity:1" />
      <stop offset="40%" style="stop-color:#0F172A;stop-opacity:1" />
      <stop offset="100%" style="stop-color:#020617;stop-opacity:1" />
    </linearGradient>
    <filter id="slashShadow" x="-50%" y="-50%" width="200%" height="200%">
      <feGaussianBlur in="SourceAlpha" stdDeviation="2"/>
      <feOffset dx="1" dy="2" result="offsetblur"/>
      <feComponentTransfer>
        <feFuncA type="linear" slope="0.25"/>
      </feComponentTransfer>
      <feMerge>
        <feMergeNode/>
        <feMergeNode in="SourceGraphic"/>
      </feMerge>
    </filter>
  </defs>
  
  <!-- Left C - opening to the right -->
  <path d="M 320 400 
           C 320 325 375 265 445 265
           C 475 265 503 275 525 292
           L 490 327
           C 475 315 458 308 440 308
           C 400 308 368 340 368 380
           L 368 420
           C 368 460 400 492 440 492
           C 458 492 475 485 490 473
           L 525 508
           C 503 525 475 535 445 535
           C 375 535 320 475 320 400 Z" 
        fill="#0F172A"/>
  
  <!-- Right C - horizontally flipped (opening to the left) -->
  <path d="M 480 400
           C 480 475 425 535 355 535
           C 325 535 297 525 275 508
           L 310 473
           C 325 485 342 492 360 492
           C 400 492 432 460 432 420
           L 432 380
           C 432 340 400 308 360 308
           C 342 308 325 315 310 327
           L 275 292
           C 297 275 325 265 355 265
           C 425 265 480 325 480 400 Z"
        fill="#0F172A"/>
  
  <!-- Forward slash with beveled 3D effect -->
  <!-- Shadow/depth layer -->
  <path d="M 409 270 L 419 270 L 391 530 L 381 530 Z" 
        fill="#64748B" 
        opacity="0.2"/>
  
  <!-- Main slash body -->
  <path d="M 410 268 L 420 268 L 390 532 L 380 532 Z" 
        fill="url(#slashGradient)" 
        filter="url(#slashShadow)"/>
  
  <!-- Left facet (darker) -->
  <path d="M 410 268 L 413 268 L 383 532 L 380 532 Z" 
        fill="#1E293B" 
        opacity="0.7"/>
  
  <!-- Right facet (lighter highlight) -->
  <path d="M 417 268 L 420 268 L 390 532 L 387 532 Z" 
        fill="#475569" 
        opacity="0.5"/>
  
  <!-- Top highlight edge -->
  <path d="M 412 268 L 418 268 L 418 272 L 412 272 Z" 
        fill="#64748B" 
        opacity="0.6"/>
</svg>
