<svg width="1024" height="1024" viewBox="0 0 1024 1024" fill="none" xmlns="http://www.w3.org/2000/svg">
  <rect width="1024" height="1024" fill="white"/>
  <path d="M330 647C318.4 647 308 643.4 298.8 636.2C289.6 629 282.4 619.6 277.2 607.9C272 596.2 269.4 583.1 269.4 568.6C269.4 554.1 272 541 277.2 529.3C282.4 517.6 289.6 508.2 298.8 501C308 493.8 318.4 490.2 330 490.2C341.6 490.2 352 493.8 361.2 501C370.4 508.2 377.6 517.6 382.8 529.3C388 541 390.6 554.1 390.6 568.6C390.6 583.1 388 596.2 382.8 607.9C377.6 619.6 370.4 629 361.2 636.2C352 643.4 341.6 647 330 647ZM330 617C339.2 617 346.8 613.1 352.8 605.3C358.8 597.5 361.8 586.4 361.8 571.9C361.8 557.4 358.8 546.3 352.8 538.5C346.8 530.7 339.2 526.8 330 526.8C320.8 526.8 313.2 530.7 307.2 538.5C301.2 546.3 298.2 557.4 298.2 571.9C298.2 586.4 301.2 597.5 307.2 605.3C313.2 613.1 320.8 617 330 617Z" fill="#1E293B"/>
  <path d="M694 647C682.4 647 672 643.4 662.8 636.2C653.6 629 646.4 619.6 641.2 607.9C636 596.2 633.4 583.1 633.4 568.6C633.4 554.1 636 541 641.2 529.3C646.4 517.6 653.6 508.2 662.8 501C672 493.8 682.4 490.2 694 490.2C705.6 490.2 716 493.8 725.2 501C734.4 508.2 741.6 517.6 746.8 529.3C752 541 754.6 554.1 754.6 568.6C754.6 583.1 752 596.2 746.8 607.9C741.6 619.6 734.4 629 725.2 636.2C716 643.4 705.6 647 694 647ZM694 617C703.2 617 710.8 613.1 716.8 605.3C722.8 597.5 725.8 586.4 725.8 571.9C725.8 557.4 722.8 546.3 716.8 538.5C710.8 530.7 703.2 526.8 694 526.8C684.8 526.8 677.2 530.7 671.2 538.5C665.2 546.3 662.2 557.4 662.2 571.9C662.2 586.4 665.2 597.5 671.2 605.3C677.2 613.1 684.8 617 694 617Z" fill="#1E293B"/>
</svg>
